<?xml version="1.0" encoding="utf-8"?>
<!-- Generator: Adobe Illustrator 24.0.2, SVG Export Plug-In . SVG Version: 6.00 Build 0)  -->
<svg version="1.1" id="Capa_1" xmlns="http://www.w3.org/2000/svg" xmlns:xlink="http://www.w3.org/1999/xlink" x="0px" y="0px"
	 viewBox="0 0 471.3 377.4" style="enable-background:new 0 0 471.3 377.4;" xml:space="preserve">
<style type="text/css">
	.st0{fill-rule:evenodd;clip-rule:evenodd;fill:#FFFFFF;}
</style>
<title>logo</title>
<path class="st0" d="M2.8,188.7c0,0,226.9,0,226.9,157.5c0,120.3,240.6-157.5,240.6-157.5l-173.6,78.1l49.6-67l-116.6,43.4v-54.6"/>
<path class="st0" d="M2.8,189.7c0,0,226.9,0,226.9-157.5c0-120.3,240.6,157.5,240.6,157.5l-173.6-78.1l49.6,67l-116.6-43.4v54.6"/>
<path class="st0" d="M470.3,189.7c0,0-226.9,0-226.9-157.5C243.4-88.1,2.8,189.7,2.8,189.7l173.6-78.1l-49.6,67l116.6-43.4v54.6"/>
<path class="st0" d="M470.3,188.7c0,0-226.9,0-226.9,157.5c0,120.3-240.6-157.5-240.6-157.5l173.6,78.1l-49.6-67l116.6,43.4v-54.6"
	/>
</svg>
