<svg id="Capa_1" data-name="Capa 1" xmlns="http://www.w3.org/2000/svg" viewBox="0 0 471.3 377.44"><defs><style>.cls-1{fill-rule:evenodd;}</style></defs><title>logonegro</title><path class="cls-1" d="M14.35,246.38s228.77,0,228.77,158.77c0,121.26,242.53-158.77,242.53-158.77l-175,78.76,50-67.51L243.12,301.38v-55" transform="translate(-14.35 -58.16)"/><path class="cls-1" d="M14.35,247.38s228.77,0,228.77-158.77c0-121.26,242.53,158.77,242.53,158.77l-175-78.76,50,67.51L243.12,192.37v55" transform="translate(-14.35 -58.16)"/><path class="cls-1" d="M485.65,247.38s-228.77,0-228.77-158.77c0-121.26-242.53,158.77-242.53,158.77l175-78.76-50,67.51,117.52-43.76v55" transform="translate(-14.35 -58.16)"/><path class="cls-1" d="M485.65,246.38s-228.77,0-228.77,158.77c0,121.26-242.53-158.77-242.53-158.77l175,78.76-50-67.51,117.52,43.75v-55" transform="translate(-14.35 -58.16)"/></svg>