<svg id="Capa_1" data-name="Capa 1" xmlns="http://www.w3.org/2000/svg" viewBox="0 0 467.55 374.44"><defs><style>.cls-1{fill:#fff;fill-rule:evenodd;}</style></defs><title>logo_sintexto</title><path class="cls-1" d="M2.75,188.72s227,0,227,157.51c0,120.3,240.6-157.51,240.6-157.51L296.69,266.86l49.6-67L229.7,243.29V188.72" transform="translate(-2.75 -2)"/><path class="cls-1" d="M2.75,189.72s227,0,227-157.51c0-120.3,240.6,157.51,240.6,157.51L296.69,111.58l49.6,67L229.7,135.14v54.57" transform="translate(-2.75 -2)"/><path class="cls-1" d="M470.3,189.72s-226.95,0-226.95-157.51c0-120.3-240.6,157.51-240.6,157.51l173.61-78.14-49.6,67,116.58-43.42v54.57" transform="translate(-2.75 -2)"/><path class="cls-1" d="M470.3,188.72s-226.95,0-226.95,157.51c0,120.3-240.6-157.51-240.6-157.51l173.61,78.14-49.6-67,116.58,43.41V188.72" transform="translate(-2.75 -2)"/></svg>