<svg viewBox="0 0 512 512" xmlns="http://www.w3.org/2000/svg"><path d="m468 53.5v-35h-30v-18.5h-15v18.5h-25v-18.5h-15v18.5h-15v-18.5h-15v18.5h-30v85h30v15h-195v-118.5h-15v133.5h225v-30h15v110h-15v-65h-225v65h-15v-213.5h-15v8.5h-25v-8.5h-15v213.5h-30v35h-43v210h43v35h30v18.5h15v-18.5h25v18.5h15v-18.5h15v18.5h15v-18.5h30v-85h-30v-15h195v118.5h15v-133.5h-225v30h-15v-110h15v65h225v-65h15v213.5h15v-8.5h25v8.5h15v-213.5h30v-35h43v-210zm-15-14.941406v44.886718l-41.679688-22.445312zm-22.246094-5.058594-35.253906 18.980469-35.253906-18.980469zm-92.753906 49.941406v-44.882812l41.679688 22.441406zm22.246094 5.058594 35.253906-18.980469 35.253906 18.980469zm37.753906 80v-25h25v25zm25 15v30h-25v-30zm-25-55v-25h25v25zm32.753906 100-35.253906 18.980469-35.253906-18.980469zm-51.074218 27.5-41.679688 22.441406v-44.886718zm-291.679688-232.5h25v25h-25zm0 40h25v25h-25zm0 40h25v25h-25zm0 40h25v25h-25zm0 40h25v30h-25zm62.753906 45-35.253906 18.980469-35.253906-18.980469zm22.246094 5.058594v44.886718l-41.679688-22.445312zm-115 0 41.679688 22.441406-41.679688 22.441406zm-15 209.941406h-28v-180h28v35h30v110h-30zm15 29.941406v-44.886718l41.679688 22.445312zm22.246094 5.058594 35.253906-18.980469 35.253906 18.980469zm92.753906-49.941406v44.886718l-41.679688-22.445312zm-22.246094-5.058594-35.253906 18.980469-35.253906-18.980469zm-37.753906-80v25h-25v-25zm-25-15v-30h25v30zm25 55v25h-25v-25zm-32.753906-100 35.253906-18.980469 35.253906 18.980469zm272.753906 65h-195v-50h30v-85h-30v-50h195v50h-30v85h30zm70 140h-25v-25h25zm0-40h-25v-25h25zm0-40h-25v-25h25zm0-40h-25v-25h25zm0-40h-25v-30h25zm-62.753906-45 35.253906-18.980469 35.253906 18.980469zm92.753906-5.058594-41.679688-22.441406 41.679688-22.441406zm43-29.941406h-28v-35h-30v-110h30v-35h28zm0 0"/><path d="m218 248.5h15v15h-15zm0 0"/><path d="m278 248.5h15v15h-15zm0 0"/><path d="m248 248.5h15v15h-15zm0 0"/><path d="m225.5 458.5h30v15h-30zm0 0"/><path d="m270.5 458.5h15v15h-15zm0 0"/><path d="m275.5 428.5h25v15h-25zm0 0"/><path d="m210.5 428.5h50v15h-50zm0 0"/><path d="m270.5 68.5h15v15h-15zm0 0"/><path d="m225.5 68.5h30v15h-30zm0 0"/><path d="m250.5 38.5h50v15h-50zm0 0"/><path d="m210.5 38.5h25v15h-25zm0 0"/></svg>